<svg width="400" height="170" viewBox="0 0 400 170" fill="none" xmlns="http://www.w3.org/2000/svg">
<g clip-path="url(#clip0_4_12)">
<path d="M32.3153 148.599C26.882 148.599 20.7666 148.599 20.7666 148.599V113.036C20.7666 113.036 26.6979 113.036 32.3153 113.036C40.2292 113.036 43.8942 118.937 43.8942 129.496C43.8942 143.997 39.4967 148.599 32.3153 148.599ZM20.7666 61.44C20.7666 61.44 26.5996 61.44 32.0328 61.44C37.8486 61.44 42.5559 65.7197 42.5559 77.51C42.5559 89.4253 37.1161 93.5469 32.0328 93.5469C26.4154 93.5469 20.7666 93.5469 20.7666 93.5469V61.44ZM51.5861 101.948V101.85C56.1648 98.6367 63.4841 93.1093 63.4841 75.345C63.4841 52.3927 51.5085 41.9976 35.3307 41.9976C29.8506 41.9976 0 41.9976 0 41.9976V168.031C0 168.031 19.6906 168.031 35.1459 168.031C55.0651 168.031 64.765 153.265 64.765 131.265C64.765 110.74 56.7131 105.072 51.5861 101.948V101.948Z" fill="white"/>
<path d="M102.957 61.44C102.957 61.44 108.787 61.44 114.223 61.44C120.039 61.44 124.73 65.7197 124.73 77.51C124.73 89.4253 119.307 93.5469 114.223 93.5469C108.605 93.5469 102.957 93.5469 102.957 93.5469V61.44V61.44ZM145.287 125.852C145.287 110.145 140.413 105.733 133.776 101.948V101.85C138.355 98.6367 145.611 93.1093 145.611 75.345C145.611 52.3927 133.699 41.9976 117.521 41.9976C112.038 41.9976 82.1899 41.9976 82.1899 41.9976V168.031H102.943L102.957 113.036C102.957 113.036 108.605 113.036 114.219 113.036C120.126 113.036 124.348 117.944 124.348 129.083V168.031H145.276L145.287 125.852H145.287Z" fill="white"/>
<path d="M185.773 30.6045C185.773 21.1272 194.474 19.9032 199.281 19.9032C204.089 19.9032 212.756 21.1035 212.756 30.6045L212.748 93.5468H185.758L185.773 30.6045H185.773ZM199.281 0C190.503 0 165.036 1.99033 165.036 27.4742V168.048H185.799V113.046H212.758L212.751 168.025H233.531V27.4742C233.532 1.94295 208.031 0 199.281 0H199.281Z" fill="white"/>
<path d="M295.724 41.9707V141.186C295.724 146.235 291.549 149.608 285.347 149.608C279.116 149.608 275.019 146.229 275.019 141.186L275.003 41.9707L254.245 41.9974L254.241 144.5C254.241 164.017 274.305 169.221 285.369 169.221C296.333 169.221 316.484 163.99 316.484 144.477V41.9707H295.724" fill="white"/>
<path d="M378.702 168.015L378.694 68.8429C378.694 63.7939 374.522 60.4215 368.323 60.4215C362.092 60.4215 357.988 63.8034 357.988 68.8429L357.981 168.015L337.218 168.031V65.5284C337.218 46.0119 357.286 40.8079 368.35 40.8079C379.314 40.8079 399.458 46.0386 399.458 65.5515V168.014H378.702" fill="white"/>
</g>
<defs>
<clipPath id="clip0_4_12">
<rect width="399.458" height="169.221" fill="white"/>
</clipPath>
</defs>
</svg>
